<mxfile host="app.diagrams.net" agent="Mozilla/5.0 (Windows NT 10.0; Win64; x64; rv:135.0) Gecko/20100101 Firefox/135.0" version="26.0.13">
  <diagram name="Page-1" id="R5sZWnpP6Ltu-UEn7ibA">
    <mxGraphModel dx="457" dy="284" grid="1" gridSize="5" guides="1" tooltips="1" connect="1" arrows="0" fold="1" page="1" pageScale="1" pageWidth="850" pageHeight="1100" math="0" shadow="0">
      <root>
        <mxCell id="0" />
        <mxCell id="1" parent="0" />
        <mxCell id="m6EmuWL7MX0fsudRMZB8-10" style="edgeStyle=orthogonalEdgeStyle;rounded=0;orthogonalLoop=1;jettySize=auto;html=1;exitX=0.25;exitY=1;exitDx=0;exitDy=0;endArrow=none;startFill=0;entryX=1;entryY=0.25;entryDx=0;entryDy=0;" edge="1" parent="1" source="m6EmuWL7MX0fsudRMZB8-4" target="m6EmuWL7MX0fsudRMZB8-13">
          <mxGeometry relative="1" as="geometry">
            <mxPoint x="410" y="430" as="targetPoint" />
            <Array as="points">
              <mxPoint x="480" y="280" />
              <mxPoint x="420" y="280" />
              <mxPoint x="420" y="325" />
            </Array>
          </mxGeometry>
        </mxCell>
        <mxCell id="m6EmuWL7MX0fsudRMZB8-11" style="edgeStyle=orthogonalEdgeStyle;rounded=0;orthogonalLoop=1;jettySize=auto;html=1;exitX=0.75;exitY=1;exitDx=0;exitDy=0;endArrow=none;startFill=0;" edge="1" parent="1" source="m6EmuWL7MX0fsudRMZB8-4">
          <mxGeometry relative="1" as="geometry">
            <mxPoint x="280" y="500" as="targetPoint" />
            <Array as="points">
              <mxPoint x="540" y="500" />
            </Array>
          </mxGeometry>
        </mxCell>
        <mxCell id="m6EmuWL7MX0fsudRMZB8-4" value="&lt;div&gt;Power Source&lt;/div&gt;&lt;div&gt;12V 1A&lt;/div&gt;&lt;div&gt;+&amp;nbsp;&amp;nbsp;&amp;nbsp;&amp;nbsp;&amp;nbsp;&amp;nbsp;&amp;nbsp;&amp;nbsp;&amp;nbsp;&amp;nbsp;&amp;nbsp;&amp;nbsp;&amp;nbsp;&amp;nbsp;&amp;nbsp; -&lt;/div&gt;" style="rounded=0;whiteSpace=wrap;html=1;fillColor=none;" vertex="1" parent="1">
          <mxGeometry x="450" y="200" width="120" height="60" as="geometry" />
        </mxCell>
        <mxCell id="m6EmuWL7MX0fsudRMZB8-13" value="Solenoid" style="rounded=0;whiteSpace=wrap;html=1;fillColor=none;" vertex="1" parent="1">
          <mxGeometry x="340" y="315" width="60" height="40" as="geometry" />
        </mxCell>
        <mxCell id="m6EmuWL7MX0fsudRMZB8-14" value="" style="rounded=0;whiteSpace=wrap;html=1;fillColor=none;" vertex="1" parent="1">
          <mxGeometry x="310" y="325" width="30" height="20" as="geometry" />
        </mxCell>
        <mxCell id="m6EmuWL7MX0fsudRMZB8-16" value="" style="triangle;whiteSpace=wrap;html=1;fillColor=none;rotation=-90;" vertex="1" parent="1">
          <mxGeometry x="440" y="330" width="10" height="10" as="geometry" />
        </mxCell>
        <mxCell id="m6EmuWL7MX0fsudRMZB8-17" value="" style="endArrow=none;html=1;rounded=0;" edge="1" parent="1">
          <mxGeometry width="50" height="50" relative="1" as="geometry">
            <mxPoint x="440.1" y="330" as="sourcePoint" />
            <mxPoint x="450" y="330" as="targetPoint" />
          </mxGeometry>
        </mxCell>
        <mxCell id="m6EmuWL7MX0fsudRMZB8-20" value="" style="endArrow=none;html=1;rounded=0;edgeStyle=orthogonalEdgeStyle;exitX=0;exitY=0.5;exitDx=0;exitDy=0;" edge="1" parent="1" source="m6EmuWL7MX0fsudRMZB8-16">
          <mxGeometry width="50" height="50" relative="1" as="geometry">
            <mxPoint x="390" y="385" as="sourcePoint" />
            <mxPoint x="420" y="355" as="targetPoint" />
            <Array as="points">
              <mxPoint x="445" y="355" />
            </Array>
          </mxGeometry>
        </mxCell>
        <mxCell id="m6EmuWL7MX0fsudRMZB8-21" value="" style="endArrow=none;html=1;rounded=0;edgeStyle=orthogonalEdgeStyle;exitX=1;exitY=0.5;exitDx=0;exitDy=0;" edge="1" parent="1" source="m6EmuWL7MX0fsudRMZB8-16">
          <mxGeometry width="50" height="50" relative="1" as="geometry">
            <mxPoint x="450" y="305" as="sourcePoint" />
            <mxPoint x="420" y="315" as="targetPoint" />
            <Array as="points">
              <mxPoint x="445" y="315" />
            </Array>
          </mxGeometry>
        </mxCell>
        <mxCell id="m6EmuWL7MX0fsudRMZB8-23" value="" style="ellipse;whiteSpace=wrap;html=1;aspect=fixed;fillColor=none;" vertex="1" parent="1">
          <mxGeometry x="470" y="395" width="40" height="40" as="geometry" />
        </mxCell>
        <mxCell id="m6EmuWL7MX0fsudRMZB8-24" value="" style="endArrow=none;html=1;rounded=0;exitX=1;exitY=0.75;exitDx=0;exitDy=0;edgeStyle=orthogonalEdgeStyle;" edge="1" parent="1" source="m6EmuWL7MX0fsudRMZB8-13">
          <mxGeometry width="50" height="50" relative="1" as="geometry">
            <mxPoint x="390" y="365" as="sourcePoint" />
            <mxPoint x="500" y="415" as="targetPoint" />
            <Array as="points">
              <mxPoint x="420" y="345" />
              <mxPoint x="420" y="375" />
              <mxPoint x="500" y="375" />
            </Array>
          </mxGeometry>
        </mxCell>
        <mxCell id="m6EmuWL7MX0fsudRMZB8-25" value="" style="endArrow=none;html=1;rounded=0;" edge="1" parent="1">
          <mxGeometry width="50" height="50" relative="1" as="geometry">
            <mxPoint x="480" y="405" as="sourcePoint" />
            <mxPoint x="465" y="425" as="targetPoint" />
            <Array as="points">
              <mxPoint x="480" y="425" />
            </Array>
          </mxGeometry>
        </mxCell>
        <mxCell id="m6EmuWL7MX0fsudRMZB8-27" value="" style="endArrow=none;html=1;rounded=0;" edge="1" parent="1">
          <mxGeometry width="50" height="50" relative="1" as="geometry">
            <mxPoint x="485" y="407" as="sourcePoint" />
            <mxPoint x="485" y="399" as="targetPoint" />
          </mxGeometry>
        </mxCell>
        <mxCell id="m6EmuWL7MX0fsudRMZB8-28" value="" style="endArrow=none;html=1;rounded=0;" edge="1" parent="1">
          <mxGeometry width="50" height="50" relative="1" as="geometry">
            <mxPoint x="485" y="419" as="sourcePoint" />
            <mxPoint x="485" y="411" as="targetPoint" />
          </mxGeometry>
        </mxCell>
        <mxCell id="m6EmuWL7MX0fsudRMZB8-29" value="" style="endArrow=none;html=1;rounded=0;" edge="1" parent="1">
          <mxGeometry width="50" height="50" relative="1" as="geometry">
            <mxPoint x="485" y="431" as="sourcePoint" />
            <mxPoint x="485" y="423" as="targetPoint" />
          </mxGeometry>
        </mxCell>
        <mxCell id="m6EmuWL7MX0fsudRMZB8-30" value="" style="endArrow=block;html=1;rounded=0;edgeStyle=orthogonalEdgeStyle;shadow=0;endFill=1;" edge="1" parent="1">
          <mxGeometry width="50" height="50" relative="1" as="geometry">
            <mxPoint x="500" y="435" as="sourcePoint" />
            <mxPoint x="485" y="415" as="targetPoint" />
            <Array as="points">
              <mxPoint x="500" y="425" />
              <mxPoint x="500" y="425" />
            </Array>
          </mxGeometry>
        </mxCell>
        <mxCell id="m6EmuWL7MX0fsudRMZB8-63" value="S" style="edgeLabel;html=1;align=center;verticalAlign=middle;resizable=0;points=[];" vertex="1" connectable="0" parent="m6EmuWL7MX0fsudRMZB8-30">
          <mxGeometry x="-0.9311" relative="1" as="geometry">
            <mxPoint x="10" y="6" as="offset" />
          </mxGeometry>
        </mxCell>
        <mxCell id="m6EmuWL7MX0fsudRMZB8-32" value="" style="endArrow=none;html=1;rounded=0;" edge="1" parent="1">
          <mxGeometry width="50" height="50" relative="1" as="geometry">
            <mxPoint x="485" y="427" as="sourcePoint" />
            <mxPoint x="500" y="427" as="targetPoint" />
          </mxGeometry>
        </mxCell>
        <mxCell id="m6EmuWL7MX0fsudRMZB8-33" value="" style="endArrow=none;html=1;rounded=0;edgeStyle=orthogonalEdgeStyle;" edge="1" parent="1">
          <mxGeometry width="50" height="50" relative="1" as="geometry">
            <mxPoint x="485" y="403" as="sourcePoint" />
            <mxPoint x="500" y="395" as="targetPoint" />
          </mxGeometry>
        </mxCell>
        <mxCell id="m6EmuWL7MX0fsudRMZB8-35" value="220Ω" style="pointerEvents=1;verticalLabelPosition=bottom;shadow=0;dashed=0;align=center;html=1;verticalAlign=top;shape=mxgraph.electrical.resistors.resistor_2;" vertex="1" parent="1">
          <mxGeometry x="410" y="440" width="55" height="10" as="geometry" />
        </mxCell>
        <mxCell id="m6EmuWL7MX0fsudRMZB8-36" value="10kΩ" style="pointerEvents=1;verticalLabelPosition=bottom;shadow=0;dashed=0;align=center;html=1;verticalAlign=top;shape=mxgraph.electrical.resistors.resistor_2;rotation=-90;" vertex="1" parent="1">
          <mxGeometry x="437" y="469" width="56" height="7" as="geometry" />
        </mxCell>
        <mxCell id="m6EmuWL7MX0fsudRMZB8-39" value="" style="endArrow=none;html=1;rounded=0;" edge="1" parent="1">
          <mxGeometry width="50" height="50" relative="1" as="geometry">
            <mxPoint x="500" y="500" as="sourcePoint" />
            <mxPoint x="500" y="435" as="targetPoint" />
          </mxGeometry>
        </mxCell>
        <mxCell id="m6EmuWL7MX0fsudRMZB8-40" value="" style="rounded=0;whiteSpace=wrap;html=1;fillColor=none;" vertex="1" parent="1">
          <mxGeometry x="150" y="520" width="250" height="160" as="geometry" />
        </mxCell>
        <mxCell id="m6EmuWL7MX0fsudRMZB8-41" value="" style="rounded=0;whiteSpace=wrap;html=1;fillColor=none;" vertex="1" parent="1">
          <mxGeometry x="165" y="530" width="135" height="40" as="geometry" />
        </mxCell>
        <mxCell id="m6EmuWL7MX0fsudRMZB8-42" value="" style="endArrow=none;html=1;rounded=0;" edge="1" parent="1">
          <mxGeometry width="50" height="50" relative="1" as="geometry">
            <mxPoint x="280" y="540" as="sourcePoint" />
            <mxPoint x="280" y="500" as="targetPoint" />
          </mxGeometry>
        </mxCell>
        <mxCell id="m6EmuWL7MX0fsudRMZB8-43" value="GND" style="edgeLabel;html=1;align=center;verticalAlign=middle;resizable=0;points=[];" vertex="1" connectable="0" parent="m6EmuWL7MX0fsudRMZB8-42">
          <mxGeometry x="-0.7348" relative="1" as="geometry">
            <mxPoint y="15" as="offset" />
          </mxGeometry>
        </mxCell>
        <mxCell id="m6EmuWL7MX0fsudRMZB8-48" value="" style="endArrow=none;html=1;rounded=0;" edge="1" parent="1">
          <mxGeometry width="50" height="50" relative="1" as="geometry">
            <mxPoint x="220" y="540" as="sourcePoint" />
            <mxPoint x="220" y="500" as="targetPoint" />
          </mxGeometry>
        </mxCell>
        <mxCell id="m6EmuWL7MX0fsudRMZB8-49" value="GPIO&lt;br&gt;20" style="edgeLabel;html=1;align=center;verticalAlign=middle;resizable=0;points=[];" vertex="1" connectable="0" parent="m6EmuWL7MX0fsudRMZB8-48">
          <mxGeometry x="-0.7348" relative="1" as="geometry">
            <mxPoint y="15" as="offset" />
          </mxGeometry>
        </mxCell>
        <mxCell id="m6EmuWL7MX0fsudRMZB8-50" value="" style="endArrow=none;html=1;rounded=0;" edge="1" parent="1">
          <mxGeometry width="50" height="50" relative="1" as="geometry">
            <mxPoint x="190" y="540" as="sourcePoint" />
            <mxPoint x="190" y="500" as="targetPoint" />
          </mxGeometry>
        </mxCell>
        <mxCell id="m6EmuWL7MX0fsudRMZB8-51" value="5V" style="edgeLabel;html=1;align=center;verticalAlign=middle;resizable=0;points=[];" vertex="1" connectable="0" parent="m6EmuWL7MX0fsudRMZB8-50">
          <mxGeometry x="-0.7348" relative="1" as="geometry">
            <mxPoint y="15" as="offset" />
          </mxGeometry>
        </mxCell>
        <mxCell id="m6EmuWL7MX0fsudRMZB8-52" value="" style="endArrow=none;html=1;rounded=0;" edge="1" parent="1">
          <mxGeometry width="50" height="50" relative="1" as="geometry">
            <mxPoint x="250" y="540" as="sourcePoint" />
            <mxPoint x="250" y="500" as="targetPoint" />
          </mxGeometry>
        </mxCell>
        <mxCell id="m6EmuWL7MX0fsudRMZB8-53" value="GPIO&lt;br&gt;21" style="edgeLabel;html=1;align=center;verticalAlign=middle;resizable=0;points=[];" vertex="1" connectable="0" parent="m6EmuWL7MX0fsudRMZB8-52">
          <mxGeometry x="-0.7348" relative="1" as="geometry">
            <mxPoint y="15" as="offset" />
          </mxGeometry>
        </mxCell>
        <mxCell id="m6EmuWL7MX0fsudRMZB8-54" value="" style="endArrow=none;html=1;rounded=0;edgeStyle=orthogonalEdgeStyle;entryX=0;entryY=0.5;entryDx=0;entryDy=0;entryPerimeter=0;" edge="1" parent="1" target="m6EmuWL7MX0fsudRMZB8-35">
          <mxGeometry width="50" height="50" relative="1" as="geometry">
            <mxPoint x="250" y="500" as="sourcePoint" />
            <mxPoint x="310" y="420" as="targetPoint" />
            <Array as="points">
              <mxPoint x="250" y="445" />
            </Array>
          </mxGeometry>
        </mxCell>
        <mxCell id="m6EmuWL7MX0fsudRMZB8-56" value="&lt;div&gt;Servo&lt;/div&gt;" style="rounded=0;whiteSpace=wrap;html=1;fillColor=none;" vertex="1" parent="1">
          <mxGeometry x="175" y="355" width="60" height="40" as="geometry" />
        </mxCell>
        <mxCell id="m6EmuWL7MX0fsudRMZB8-57" value="" style="endArrow=none;html=1;rounded=0;edgeStyle=orthogonalEdgeStyle;entryX=0.25;entryY=1;entryDx=0;entryDy=0;" edge="1" parent="1" target="m6EmuWL7MX0fsudRMZB8-56">
          <mxGeometry width="50" height="50" relative="1" as="geometry">
            <mxPoint x="190" y="500" as="sourcePoint" />
            <mxPoint x="160" y="445" as="targetPoint" />
            <Array as="points">
              <mxPoint x="190" y="460" />
              <mxPoint x="190" y="460" />
            </Array>
          </mxGeometry>
        </mxCell>
        <mxCell id="m6EmuWL7MX0fsudRMZB8-58" value="" style="endArrow=none;html=1;rounded=0;edgeStyle=orthogonalEdgeStyle;exitX=0.5;exitY=1;exitDx=0;exitDy=0;" edge="1" parent="1" source="m6EmuWL7MX0fsudRMZB8-56">
          <mxGeometry width="50" height="50" relative="1" as="geometry">
            <mxPoint x="195" y="455" as="sourcePoint" />
            <mxPoint x="220" y="500" as="targetPoint" />
            <Array as="points">
              <mxPoint x="205" y="500" />
            </Array>
          </mxGeometry>
        </mxCell>
        <mxCell id="m6EmuWL7MX0fsudRMZB8-70" value="Signal" style="edgeLabel;html=1;align=center;verticalAlign=middle;resizable=0;points=[];rotation=90;" vertex="1" connectable="0" parent="m6EmuWL7MX0fsudRMZB8-58">
          <mxGeometry x="-0.3727" y="-1" relative="1" as="geometry">
            <mxPoint x="9" y="-4" as="offset" />
          </mxGeometry>
        </mxCell>
        <mxCell id="m6EmuWL7MX0fsudRMZB8-59" value="" style="endArrow=none;html=1;rounded=0;edgeStyle=orthogonalEdgeStyle;entryX=0.75;entryY=1;entryDx=0;entryDy=0;" edge="1" parent="1" target="m6EmuWL7MX0fsudRMZB8-56">
          <mxGeometry width="50" height="50" relative="1" as="geometry">
            <mxPoint x="245" y="485" as="sourcePoint" />
            <mxPoint x="245" y="405" as="targetPoint" />
            <Array as="points">
              <mxPoint x="245" y="485" />
              <mxPoint x="220" y="485" />
            </Array>
          </mxGeometry>
        </mxCell>
        <mxCell id="m6EmuWL7MX0fsudRMZB8-60" value="" style="curved=1;endArrow=none;html=1;rounded=0;startFill=0;startArrow=none;" edge="1" parent="1">
          <mxGeometry width="50" height="50" relative="1" as="geometry">
            <mxPoint x="245" y="485" as="sourcePoint" />
            <mxPoint x="255" y="485" as="targetPoint" />
            <Array as="points">
              <mxPoint x="245" y="490" />
              <mxPoint x="255" y="490" />
            </Array>
          </mxGeometry>
        </mxCell>
        <mxCell id="m6EmuWL7MX0fsudRMZB8-61" value="" style="endArrow=none;html=1;rounded=0;edgeStyle=orthogonalEdgeStyle;" edge="1" parent="1">
          <mxGeometry width="50" height="50" relative="1" as="geometry">
            <mxPoint x="255" y="485" as="sourcePoint" />
            <mxPoint x="280" y="500" as="targetPoint" />
            <Array as="points">
              <mxPoint x="255" y="485" />
              <mxPoint x="280" y="485" />
            </Array>
          </mxGeometry>
        </mxCell>
        <mxCell id="m6EmuWL7MX0fsudRMZB8-62" value="" style="endArrow=none;html=1;rounded=0;exitX=1;exitY=0.5;exitDx=0;exitDy=0;exitPerimeter=0;" edge="1" parent="1" source="m6EmuWL7MX0fsudRMZB8-35">
          <mxGeometry width="50" height="50" relative="1" as="geometry">
            <mxPoint x="395" y="480" as="sourcePoint" />
            <mxPoint x="465" y="425" as="targetPoint" />
          </mxGeometry>
        </mxCell>
        <mxCell id="m6EmuWL7MX0fsudRMZB8-64" value="D" style="text;html=1;align=center;verticalAlign=middle;resizable=0;points=[];autosize=1;strokeColor=none;fillColor=none;" vertex="1" parent="1">
          <mxGeometry x="495" y="375" width="30" height="30" as="geometry" />
        </mxCell>
        <mxCell id="m6EmuWL7MX0fsudRMZB8-65" value="G" style="text;html=1;align=center;verticalAlign=middle;resizable=0;points=[];autosize=1;strokeColor=none;fillColor=none;" vertex="1" parent="1">
          <mxGeometry x="440" y="405" width="30" height="30" as="geometry" />
        </mxCell>
        <mxCell id="m6EmuWL7MX0fsudRMZB8-68" value="+5V" style="text;html=1;align=center;verticalAlign=middle;resizable=0;points=[];autosize=1;strokeColor=none;fillColor=none;rotation=90;" vertex="1" parent="1">
          <mxGeometry x="175" y="395" width="45" height="30" as="geometry" />
        </mxCell>
        <mxCell id="m6EmuWL7MX0fsudRMZB8-69" value="Ground" style="text;html=1;align=center;verticalAlign=middle;resizable=0;points=[];autosize=1;strokeColor=none;fillColor=none;rotation=90;" vertex="1" parent="1">
          <mxGeometry x="198" y="405" width="60" height="30" as="geometry" />
        </mxCell>
      </root>
    </mxGraphModel>
  </diagram>
</mxfile>
